<?xml version="1.0" encoding="UTF-8" standalone="no"?>
<svg width="259px" height="55px" viewBox="0 0 259 55" version="1.1" xmlns="http://www.w3.org/2000/svg" xmlns:xlink="http://www.w3.org/1999/xlink" xmlns:sketch="http://www.bohemiancoding.com/sketch/ns">
    <!-- Generator: Sketch 3.3.1 (12005) - http://www.bohemiancoding.com/sketch -->
    <title>Group</title>
    <desc>Created with Sketch.</desc>
    <defs></defs>
    <g id="Page-1" stroke="none" stroke-width="1" fill="none" fill-rule="evenodd" sketch:type="MSPage">
        <g id="sheridan-logo" sketch:type="MSLayerGroup" fill="#FFFFFF">
            <g id="Group" sketch:type="MSShapeGroup">
                <path d="M69.292,50.617 L69.281,39.92 L69.281,35.131 C69.287,31.203 69.043,27.49 65.715,24.385 C63.475,22.224 61.194,21.302 58.089,21.302 C55.077,21.302 50.554,22.815 47.693,26.126 L47.693,0.838 L38.312,0.838 L38.312,3.03 C38.344,3.034 41.41,2.533 41.41,5.79 L41.413,50.603 C41.413,52.014 37.219,52.683 37.189,52.69 L37.189,54.316 L41.223,54.316 L41.265,54.316 L47.868,54.316 L47.909,54.316 L51.944,54.316 L51.944,52.69 C51.914,52.683 47.734,52.197 47.734,50.616 L47.734,31.273 C47.913,30.214 48.503,29.085 49.105,28.351 C51.443,25.679 54.371,25.28 55.906,25.28 C57.711,25.28 59.232,25.927 60.695,27.319 C62.715,29.196 63.219,31.953 63.219,36.382 L63.219,50.604 C63.219,52.015 59.024,52.684 58.995,52.691 L58.995,54.317 L63.03,54.317 L63.071,54.317 L69.43,54.317 L69.469,54.317 L73.505,54.317 L73.505,52.691 C73.475,52.685 69.292,52.198 69.292,50.617 L69.292,50.617 Z" id="Shape"></path>
                <path d="M144.533,50.617 L144.533,22.085 C144.533,22.042 144.459,22.012 144.45,21.981 L135.119,21.981 L135.119,24.174 C135.151,24.177 138.233,23.859 138.233,27.117 L138.233,50.604 C138.233,52.015 134.054,52.684 134.023,52.691 L134.023,54.317 L138.061,54.317 L138.101,54.317 L144.705,54.317 L144.744,54.317 L148.78,54.317 L148.78,52.691 C148.751,52.685 144.533,52.198 144.533,50.617 L144.533,50.617 Z" id="Shape"></path>
                <circle id="Oval" cx="140.827" cy="11.875" r="3.744"></circle>
                <path d="M182.814,48.336 C182.569,48.029 182.38,47.106 182.261,45.712 L182.261,0.838 L172.88,0.838 L172.88,3.03 C172.912,3.034 175.849,2.738 175.968,5.791 L175.968,22.345 C173.538,21.654 170.917,21.303 168.166,21.303 C163.702,21.303 159.654,23.017 156.774,26.119 C153.329,29.565 151.431,34.174 151.431,39.092 C151.431,39.092 151.27,55 165.305,55 C169.186,55 174.254,52.896 176.711,50.685 L178.877,54.364 L186.986,52.002 L186.986,50.455 C183.544,50.454 182.814,48.336 182.814,48.336 L182.814,48.336 Z M175.958,44.811 C175.958,45.6 175.891,46.17 175.523,47.276 C174.789,49.188 171.578,51.271 167.564,51.247 C161.79,51.212 157.771,45.838 157.771,37.175 C157.771,33.075 158.732,29.432 160.98,27.01 C163.073,24.838 165.755,24.381 167.64,24.381 C172.541,24.381 174.548,26.839 175.314,28.312 C175.958,29.457 175.958,30.851 175.958,31.873 L175.958,44.811 L175.958,44.811 Z" id="Shape"></path>
                <path d="M215.096,49.268 C214.863,48.977 214.684,48.129 214.563,46.852 L214.527,44.909 L214.527,29.254 C214.527,27.033 214.401,25.337 212.789,23.724 C212.789,23.724 211.162,21.313 202.742,21.313 C199.145,21.454 194.585,23.028 192.737,25.914 C191.236,28.259 192.019,30.074 193.291,31.225 C193.935,31.779 194.772,32.116 195.688,32.116 C197.719,32.116 199.368,30.47 199.368,28.436 C199.368,27.611 199.091,26.849 198.628,26.235 C198.88,25.76 200.685,22.735 205.677,23.611 C209.923,24.355 208.591,33.742 208.591,33.742 C206.767,34.303 193.348,38.58 191.328,44.031 C188.672,51.205 193.61,53.774 193.651,53.793 C195.086,54.595 196.655,55 198.314,55 C203.56,55 208.173,51.049 209.201,50.104 C209.96,53.071 211.911,54.661 214.608,54.702 L214.608,54.715 L214.641,54.702 C214.666,54.702 214.691,54.706 214.717,54.706 L214.717,54.674 L219.272,52.937 L219.272,51.39 C215.827,51.389 215.096,49.268 215.096,49.268 L215.096,49.268 Z M208.516,46.563 C208.516,48.341 204.762,49.751 202.541,50.3 C202.007,50.434 201.475,50.501 200.965,50.501 C198.42,50.501 196.499,48.761 196.499,46.454 C196.499,42.1 201.627,39.962 205.37,38.403 C206.624,37.878 207.734,37.419 208.516,36.94 L208.516,46.563 L208.516,46.563 Z" id="Shape"></path>
                <path d="M126.018,21.033 C122.592,21.033 118.63,24.781 116.575,27.733 L115.601,21.983 L107.692,21.983 L107.692,24.176 C107.722,24.179 110.806,23.861 110.806,27.119 L110.806,50.606 C110.806,52.017 106.626,52.686 106.599,52.693 L106.599,54.319 L110.631,54.319 L110.673,54.319 L117.277,54.319 L117.315,54.319 L121.35,54.319 L121.35,52.693 C121.322,52.686 117.105,52.2 117.105,50.619 L117.105,32.574 C117.15,32.234 117.425,31.09 117.818,30.367 C118.969,28.203 122.08,26.208 123.111,26.927 C123.761,28.136 125.036,28.963 126.506,28.963 C128.631,28.963 130.354,27.239 130.354,25.113 C130.354,24.677 130.278,24.26 130.144,23.869 C129.755,22.389 128.38,21.033 126.018,21.033 L126.018,21.033 Z" id="Shape"></path>
                <path d="M20.95,23.583 C12.26,18.065 10.18,15.657 9.478,11.553 C8.573,6.266 12.987,2.208 18.697,2.208 C20.572,2.208 28.295,2.919 28.47,13.4 L30.556,13.4 L30.556,2.518 C27.197,1.27 22.335,0 17.52,0 C9.115,0 2.283,4.863 2.283,13.988 C2.283,21.234 9.355,25.243 15.414,28.813 C24.736,34.731 26.442,37.389 26.504,41.856 C26.504,48.499 21.485,52.243 15.792,52.243 C13.254,52.243 10.974,51.468 9.231,50.009 C8.565,49.236 9.569,48.407 9.569,48.407 C10.609,47.313 11.206,45.808 11.088,44.182 C10.866,41.127 8.205,38.83 5.148,39.053 C2.091,39.275 -0.206,41.934 0.017,44.989 C0.082,45.863 0.349,46.731 0.759,47.376 C3.808,52.221 9.673,55 15.791,55 C24.805,55 33.37,49.324 33.37,39.533 C33.37,31.762 27.449,27.411 20.95,23.583 L20.95,23.583 Z" id="Shape"></path>
                <path d="M254.322,50.617 L254.31,40.102 L254.31,35.312 C254.316,31.384 253.85,27.672 250.523,24.567 C248.283,22.406 245.974,21.301 242.87,21.301 C239.859,21.301 235.361,22.996 232.5,26.307 L231.684,21.981 L223.122,21.981 L223.122,24.174 C223.152,24.178 226.217,23.815 226.217,27.223 L226.222,50.604 C226.222,52.015 222.028,52.684 221.998,52.691 L221.998,54.317 L226.031,54.317 L226.073,54.317 L232.677,54.317 L232.717,54.317 L236.752,54.317 L236.752,52.691 C236.722,52.684 232.541,52.198 232.541,50.617 L232.541,31.457 C232.722,30.396 233.312,29.269 233.915,28.534 C236.251,25.861 239.179,25.464 240.716,25.464 C242.52,25.464 244.04,26.11 245.503,27.502 C247.521,29.379 248.027,32.136 248.027,36.565 L248.027,50.605 C248.027,52.016 243.833,52.685 243.802,52.692 L243.802,54.318 L247.837,54.318 L247.878,54.318 L254.457,54.318 L254.498,54.318 L258.533,54.318 L258.533,52.692 C258.505,52.685 254.322,52.198 254.322,50.617 L254.322,50.617 Z" id="Shape"></path>
                <path d="M101.634,44.885 L101.488,45.137 C100.211,47.612 96.705,50.11 92.347,50.11 C86.403,50.11 82.19,44.659 82.19,37.43 C82.19,35.889 82.252,34.763 82.371,34.077 L102.668,34.077 C102.668,21.607 92.479,21.295 90.71,21.295 C88.94,21.295 84.365,21.757 80.848,25.358 C76.656,29.547 75.893,34.767 75.893,37.503 C75.893,42.976 76.815,45.79 79.386,49.538 C82.636,54.282 88.316,54.991 91.411,54.991 C97.641,54.991 101.877,50.491 103.608,46.64 C103.686,46.465 103.745,46.307 103.791,46.155 L103.853,45.938 L101.831,45.009 L101.634,44.885 L101.634,44.885 Z M90.359,24.071 C95.19,24.071 96.784,29.148 96.784,30.504 L96.766,31.303 L82.795,31.303 C84.083,26.634 86.76,24.071 90.359,24.071 L90.359,24.071 Z" id="Shape"></path>
            </g>
        </g>
    </g>
</svg>